<?xml version="1.0" encoding="utf-8"?>
<!-- Generator: Adobe Illustrator 23.0.4, SVG Export Plug-In . SVG Version: 6.00 Build 0)  -->
<svg version="1.1" id="Layer_1" xmlns="http://www.w3.org/2000/svg" xmlns:xlink="http://www.w3.org/1999/xlink" x="0px" y="0px"
	 viewBox="0 0 2000 2000" style="enable-background:new 0 0 2000 2000;" xml:space="preserve">
<style type="text/css">
	.st0{filter:url(#Adobe_OpacityMaskFilter);}
	.st1{fill:url(#SVGID_2_);}
	.st2{opacity:0.3;mask:url(#SVGID_1_);}
	.st3{fill:#FFFFFF;}
	.st4{filter:url(#Adobe_OpacityMaskFilter_1_);}
	.st5{fill:url(#SVGID_4_);}
	.st6{opacity:0.3;mask:url(#SVGID_3_);}
	.st7{opacity:0.3;fill:#FFFFFF;}
	.st8{filter:url(#Adobe_OpacityMaskFilter_2_);}
	.st9{fill:url(#SVGID_6_);}
	.st10{opacity:0.3;mask:url(#SVGID_5_);}
	.st11{opacity:0.2;}
	.st12{opacity:0.15;fill:#FFFFFF;}
	.st13{opacity:0.2;fill:#FFFFFF;}
</style>
<g>
	<g>
		<defs>
			<filter id="Adobe_OpacityMaskFilter" filterUnits="userSpaceOnUse" x="1968.3" y="1780.5" width="7.4" height="138">
				<feColorMatrix  type="matrix" values="1 0 0 0 0  0 1 0 0 0  0 0 1 0 0  0 0 0 1 0"/>
			</filter>
		</defs>
		<mask maskUnits="userSpaceOnUse" x="1968.3" y="1780.5" width="7.4" height="138" id="SVGID_1_">
			<g class="st0">
				<linearGradient id="SVGID_2_" gradientUnits="userSpaceOnUse" x1="2881.3901" y1="2920.8186" x2="2881.3901" y2="936.0884">
					<stop  offset="0" style="stop-color:#FFFFFF"/>
					<stop  offset="0.6293" style="stop-color:#4B4948"/>
					<stop  offset="1" style="stop-color:#010101"/>
				</linearGradient>
				<rect x="1880.5" y="1500.9" class="st1" width="2001.8" height="1495.8"/>
			</g>
		</mask>
		<g class="st2">
			<g>
				<path class="st3" d="M1974.5,1781.1c1.4,0.8,1.4,2.2,0,3c-1.4,0.8-3.8,0.8-5.2,0c-1.4-0.8-1.4-2.2,0-3
					C1970.8,1780.3,1973.1,1780.3,1974.5,1781.1z"/>
				<path class="st3" d="M1974.5,1914.9c1.4,0.8,1.4,2.2,0,3c-1.4,0.8-3.8,0.8-5.2,0c-1.4-0.8-1.4-2.2,0-3
					C1970.8,1914,1973.1,1914,1974.5,1914.9z"/>
			</g>
		</g>
	</g>
</g>
<g>
	<g>
		<g>
			<defs>
				<filter id="Adobe_OpacityMaskFilter_1_" filterUnits="userSpaceOnUse" x="24" y="1593" width="1744.9" height="338.7">
					<feColorMatrix  type="matrix" values="1 0 0 0 0  0 1 0 0 0  0 0 1 0 0  0 0 0 1 0"/>
				</filter>
			</defs>
			<mask maskUnits="userSpaceOnUse" x="24" y="1593" width="1744.9" height="338.7" id="SVGID_3_">
				<g class="st4">
					
						<linearGradient id="SVGID_4_" gradientUnits="userSpaceOnUse" x1="-333.4584" y1="787.4411" x2="-333.4584" y2="-1197.2892" gradientTransform="matrix(-1 0 0 -1 522.3875 2448.1631)">
						<stop  offset="0" style="stop-color:#FFFFFF"/>
						<stop  offset="0.6293" style="stop-color:#4B4948"/>
						<stop  offset="1" style="stop-color:#010101"/>
					</linearGradient>
					<polygon class="st5" points="-145.1,1584.8 1856.8,1584.8 1856.8,3080.7 -145.1,3080.7 					"/>
				</g>
			</mask>
			<g class="st6">
				<g>
					<path class="st3" d="M1762.7,1864.1c-1.4-0.8-1.4-2.2,0-3c1.4-0.8,3.8-0.8,5.2,0c1.4,0.8,1.4,2.2,0,3
						C1766.4,1864.9,1764.1,1864.9,1762.7,1864.1z"/>
					<ellipse class="st3" cx="1649.4" cy="1929.5" rx="3.7" ry="2.1"/>
					<path class="st3" d="M1762.7,1730.4c-1.4-0.8-1.4-2.2,0-3s3.8-0.8,5.2,0c1.4,0.8,1.4,2.2,0,3
						C1766.4,1731.2,1764.1,1731.2,1762.7,1730.4z"/>
					<path class="st3" d="M1646.8,1797.2c-1.4-0.8-1.4-2.2,0-3c1.4-0.8,3.8-0.8,5.2,0c1.4,0.8,1.4,2.2,0,3
						C1650.6,1798.1,1648.3,1798.1,1646.8,1797.2z"/>
					<path class="st3" d="M1531,1864.1c-1.4-0.8-1.4-2.2,0-3c1.4-0.8,3.8-0.8,5.2,0c1.4,0.8,1.4,2.2,0,3
						C1534.8,1864.9,1532.4,1864.9,1531,1864.1z"/>
					<path class="st3" d="M1415.2,1931c-1.4-0.8-1.4-2.2,0-3c1.4-0.8,3.8-0.8,5.2,0s1.4,2.2,0,3
						C1418.9,1931.8,1416.6,1931.8,1415.2,1931z"/>
					<path class="st3" d="M1646.8,1663.5c-1.4-0.8-1.4-2.2,0-3c1.4-0.8,3.8-0.8,5.2,0s1.4,2.2,0,3
						C1650.6,1664.3,1648.3,1664.3,1646.8,1663.5z"/>
					<path class="st3" d="M1531,1730.4c-1.4-0.8-1.4-2.2,0-3c1.4-0.8,3.8-0.8,5.2,0c1.4,0.8,1.4,2.2,0,3
						C1534.8,1731.2,1532.4,1731.2,1531,1730.4z"/>
					<path class="st3" d="M1415.2,1797.2c-1.4-0.8-1.4-2.2,0-3c1.4-0.8,3.8-0.8,5.2,0c1.4,0.8,1.4,2.2,0,3
						C1418.9,1798.1,1416.6,1798.1,1415.2,1797.2z"/>
					<path class="st3" d="M1299.3,1864.1c-1.4-0.8-1.4-2.2,0-3c1.4-0.8,3.8-0.8,5.2,0s1.4,2.2,0,3S1300.7,1864.9,1299.3,1864.1z"/>
					<path class="st3" d="M1531,1596.6c-1.4-0.8-1.4-2.2,0-3c1.4-0.8,3.8-0.8,5.2,0c1.4,0.8,1.4,2.2,0,3
						C1534.7,1597.4,1532.4,1597.4,1531,1596.6z"/>
					<path class="st3" d="M1415.1,1663.5c-1.4-0.8-1.4-2.2,0-3c1.4-0.8,3.8-0.8,5.2,0c1.4,0.8,1.4,2.2,0,3
						C1418.9,1664.3,1416.6,1664.3,1415.1,1663.5z"/>
					<ellipse class="st3" cx="1301.9" cy="1728.9" rx="3.7" ry="2.1"/>
					<path class="st3" d="M1299.3,1596.6c-1.4-0.8-1.4-2.2,0-3s3.8-0.8,5.2,0c1.4,0.8,1.4,2.2,0,3
						C1303.1,1597.4,1300.7,1597.4,1299.3,1596.6z"/>
					<path class="st3" d="M1183.5,1663.5c-1.4-0.8-1.4-2.2,0-3c1.4-0.8,3.8-0.8,5.2,0c1.4,0.8,1.4,2.2,0,3
						C1187.2,1664.3,1184.9,1664.3,1183.5,1663.5z"/>
					<path class="st3" d="M1067.6,1730.4c-1.4-0.8-1.4-2.2,0-3c1.4-0.8,3.8-0.8,5.2,0c1.4,0.8,1.4,2.2,0,3
						C1071.4,1731.2,1069.1,1731.2,1067.6,1730.4z"/>
					<ellipse class="st3" cx="954.4" cy="1795.7" rx="3.7" ry="2.1"/>
					<path class="st3" d="M836,1864.1c-1.4-0.8-1.4-2.2,0-3c1.4-0.8,3.8-0.8,5.2,0c1.4,0.8,1.4,2.2,0,3
						C839.7,1864.9,837.4,1864.9,836,1864.1z"/>
					<ellipse class="st3" cx="722.7" cy="1929.5" rx="3.7" ry="2.1"/>
					<path class="st3" d="M1067.6,1596.6c-1.4-0.8-1.4-2.2,0-3c1.4-0.8,3.8-0.8,5.2,0c1.4,0.8,1.4,2.2,0,3
						C1071.4,1597.4,1069.1,1597.4,1067.6,1596.6z"/>
					<path class="st3" d="M951.8,1663.5c-1.4-0.8-1.4-2.2,0-3c1.4-0.8,3.8-0.8,5.2,0c1.4,0.8,1.4,2.2,0,3
						C955.6,1664.3,953.2,1664.3,951.8,1663.5z"/>
					<path class="st3" d="M836,1730.4c-1.4-0.8-1.4-2.2,0-3c1.4-0.8,3.8-0.8,5.2,0c1.4,0.8,1.4,2.2,0,3
						C839.7,1731.2,837.4,1731.2,836,1730.4z"/>
					<ellipse class="st3" cx="722.7" cy="1795.7" rx="3.7" ry="2.1"/>
					<path class="st3" d="M604.3,1864.1c-1.4-0.8-1.4-2.2,0-3c1.4-0.8,3.8-0.8,5.2,0c1.4,0.8,1.4,2.2,0,3
						C608,1864.9,605.7,1864.9,604.3,1864.1z"/>
					<ellipse class="st3" cx="491" cy="1929.5" rx="3.7" ry="2.1"/>
					<path class="st3" d="M835.9,1596.6c-1.4-0.8-1.4-2.2,0-3c1.4-0.8,3.8-0.8,5.2,0c1.4,0.8,1.4,2.2,0,3
						C839.7,1597.4,837.4,1597.4,835.9,1596.6z"/>
					<path class="st3" d="M720.1,1663.5c-1.4-0.8-1.4-2.2,0-3c1.4-0.8,3.8-0.8,5.2,0c1.4,0.8,1.4,2.2,0,3
						C723.9,1664.3,721.5,1664.3,720.1,1663.5z"/>
					<path class="st3" d="M604.3,1730.3c-1.4-0.8-1.4-2.2,0-3c1.4-0.8,3.8-0.8,5.2,0c1.4,0.8,1.4,2.2,0,3
						C608,1731.2,605.7,1731.2,604.3,1730.3z"/>
					<path class="st3" d="M488.4,1797.2c-1.4-0.8-1.4-2.2,0-3c1.4-0.8,3.8-0.8,5.2,0c1.4,0.8,1.4,2.2,0,3
						C492.2,1798.1,489.9,1798.1,488.4,1797.2z"/>
					<path class="st3" d="M372.6,1864.1c-1.4-0.8-1.4-2.2,0-3c1.4-0.8,3.8-0.8,5.2,0c1.4,0.8,1.4,2.2,0,3
						C376.4,1864.9,374,1864.9,372.6,1864.1z"/>
					<path class="st3" d="M256.8,1931c-1.4-0.8-1.4-2.2,0-3c1.4-0.8,3.8-0.8,5.2,0c1.4,0.8,1.4,2.2,0,3
						C260.5,1931.8,258.2,1931.8,256.8,1931z"/>
					<path class="st3" d="M604.3,1596.6c-1.4-0.8-1.4-2.2,0-3c1.4-0.8,3.8-0.8,5.2,0c1.4,0.8,1.4,2.2,0,3
						C608,1597.4,605.7,1597.4,604.3,1596.6z"/>
					<path class="st3" d="M488.4,1663.5c-1.4-0.8-1.4-2.2,0-3c1.4-0.8,3.8-0.8,5.2,0c1.4,0.8,1.4,2.2,0,3
						C492.2,1664.3,489.9,1664.3,488.4,1663.5z"/>
					<path class="st3" d="M372.6,1730.3c-1.4-0.8-1.4-2.2,0-3c1.4-0.8,3.8-0.8,5.2,0s1.4,2.2,0,3
						C376.4,1731.2,374,1731.2,372.6,1730.3z"/>
					<path class="st3" d="M256.8,1797.2c-1.4-0.8-1.4-2.2,0-3c1.4-0.8,3.8-0.8,5.2,0s1.4,2.2,0,3
						C260.5,1798.1,258.2,1798.1,256.8,1797.2z"/>
					<path class="st3" d="M140.9,1864.1c-1.4-0.8-1.4-2.2,0-3c1.4-0.8,3.8-0.8,5.2,0c1.4,0.8,1.4,2.2,0,3
						C144.7,1864.9,142.4,1864.9,140.9,1864.1z"/>
					<path class="st3" d="M25.1,1931c-1.4-0.8-1.4-2.2,0-3c1.4-0.8,3.8-0.8,5.2,0c1.4,0.8,1.4,2.2,0,3
						C28.8,1931.8,26.5,1931.8,25.1,1931z"/>
					<path class="st3" d="M372.6,1596.6c-1.4-0.8-1.4-2.2,0-3c1.4-0.8,3.8-0.8,5.2,0c1.4,0.8,1.4,2.2,0,3
						C376.4,1597.4,374,1597.4,372.6,1596.6z"/>
					<path class="st3" d="M256.8,1663.5c-1.4-0.8-1.4-2.2,0-3c1.4-0.8,3.8-0.8,5.2,0c1.4,0.8,1.4,2.2,0,3
						C260.5,1664.3,258.2,1664.3,256.8,1663.5z"/>
					<path class="st3" d="M140.9,1730.3c-1.4-0.8-1.4-2.2,0-3s3.8-0.8,5.2,0c1.4,0.8,1.4,2.2,0,3
						C144.7,1731.2,142.3,1731.2,140.9,1730.3z"/>
					<path class="st3" d="M25.1,1797.2c-1.4-0.8-1.4-2.2,0-3c1.4-0.8,3.8-0.8,5.2,0c1.4,0.8,1.4,2.2,0,3
						C28.8,1798.1,26.5,1798.1,25.1,1797.2z"/>
					<path class="st3" d="M140.9,1596.6c-1.4-0.8-1.4-2.2,0-3s3.8-0.8,5.2,0c1.4,0.8,1.4,2.2,0,3
						C144.7,1597.4,142.3,1597.4,140.9,1596.6z"/>
					<path class="st3" d="M25.1,1663.5c-1.4-0.8-1.4-2.2,0-3c1.4-0.8,3.8-0.8,5.2,0c1.4,0.8,1.4,2.2,0,3
						C28.8,1664.3,26.5,1664.3,25.1,1663.5z"/>
				</g>
			</g>
		</g>
		<path class="st7" d="M1651.5,1670.8c5.7,0,11.4,1.5,16.5,4.4l75.7,43.7c3.5,2,5.6,5.6,5.6,9.7c0,4-2.1,7.7-5.6,9.7l-75.7,43.7
			c-10.2,5.9-22.8,5.9-32.9,0l-75.7-43.7c-3.5-2-5.6-5.6-5.6-9.7s2.1-7.7,5.6-9.7l75.7-43.7
			C1640.1,1672.3,1645.8,1670.8,1651.5,1670.8z M1651.5,1785.2c5.5,0,11-1.4,15.8-4.2l75.7-43.7c3.1-1.8,5-5,5-8.6
			c0-3.6-1.9-6.8-5-8.6l-75.7-43.7c-9.8-5.6-21.9-5.6-31.7,0l-75.7,43.7c-3.1,1.8-5,5-5,8.6s1.9,6.8,5,8.6l75.7,43.7
			C1640.5,1783.8,1646,1785.2,1651.5,1785.2z"/>
	</g>
	<g>
		<g>
			<defs>
				<filter id="Adobe_OpacityMaskFilter_2_" filterUnits="userSpaceOnUse" x="139.8" y="69.8" width="1745" height="1475.6">
					<feColorMatrix  type="matrix" values="1 0 0 0 0  0 1 0 0 0  0 0 1 0 0  0 0 0 1 0"/>
				</filter>
			</defs>
			<mask maskUnits="userSpaceOnUse" x="139.8" y="69.8" width="1745" height="1475.6" id="SVGID_5_">
				<g class="st8">
					
						<linearGradient id="SVGID_6_" gradientUnits="userSpaceOnUse" x1="-449.2963" y1="1477.6827" x2="-449.2963" y2="-507.0476" gradientTransform="matrix(-1 0 0 1 522.3875 0)">
						<stop  offset="0" style="stop-color:#FFFFFF"/>
						<stop  offset="0.6293" style="stop-color:#4B4948"/>
						<stop  offset="1" style="stop-color:#010101"/>
					</linearGradient>
					<polygon class="st9" points="-29.2,1553.6 1972.6,1553.6 1972.6,57.7 -29.2,57.7 					"/>
				</g>
			</mask>
			<g class="st10">
				<g>
					<path class="st3" d="M1878.5,338c-1.4,0.8-1.4,2.2,0,3c1.4,0.8,3.8,0.8,5.2,0c1.4-0.8,1.4-2.2,0-3
						C1882.3,337.1,1880,337.1,1878.5,338z"/>
					<ellipse class="st3" cx="1765.3" cy="272.6" rx="3.7" ry="2.1"/>
					<path class="st3" d="M1646.9,204.2c-1.4,0.8-1.4,2.2,0,3c1.4,0.8,3.8,0.8,5.2,0c1.4-0.8,1.4-2.2,0-3
						C1650.6,203.4,1648.3,203.4,1646.9,204.2z"/>
					<ellipse class="st3" cx="1533.6" cy="138.8" rx="3.7" ry="2.1"/>
					<path class="st3" d="M1415.2,70.4c-1.4,0.8-1.4,2.2,0,3c1.4,0.8,3.8,0.8,5.2,0c1.4-0.8,1.4-2.2,0-3
						C1418.9,69.6,1416.6,69.6,1415.2,70.4z"/>
					<path class="st3" d="M1878.5,471.7c-1.4,0.8-1.4,2.2,0,3c1.4,0.8,3.8,0.8,5.2,0c1.4-0.8,1.4-2.2,0-3S1880,470.9,1878.5,471.7z"
						/>
					<path class="st3" d="M1762.7,404.8c-1.4,0.8-1.4,2.2,0,3c1.4,0.8,3.8,0.8,5.2,0c1.4-0.8,1.4-2.2,0-3
						C1766.5,404,1764.1,404,1762.7,404.8z"/>
					<path class="st3" d="M1646.9,338c-1.4,0.8-1.4,2.2,0,3c1.4,0.8,3.8,0.8,5.2,0c1.4-0.8,1.4-2.2,0-3
						C1650.6,337.1,1648.3,337.1,1646.9,338z"/>
					<path class="st3" d="M1531,271.1c-1.4,0.8-1.4,2.2,0,3c1.4,0.8,3.8,0.8,5.2,0s1.4-2.2,0-3
						C1534.8,270.3,1532.5,270.3,1531,271.1z"/>
					<path class="st3" d="M1415.2,204.2c-1.4,0.8-1.4,2.2,0,3c1.4,0.8,3.8,0.8,5.2,0c1.4-0.8,1.4-2.2,0-3
						C1418.9,203.4,1416.6,203.4,1415.2,204.2z"/>
					<path class="st3" d="M1299.3,137.3c-1.4,0.8-1.4,2.2,0,3c1.4,0.8,3.8,0.8,5.2,0c1.4-0.8,1.4-2.2,0-3
						C1303.1,136.5,1300.8,136.5,1299.3,137.3z"/>
					<path class="st3" d="M1183.5,70.5c-1.4,0.8-1.4,2.2,0,3c1.4,0.8,3.8,0.8,5.2,0c1.4-0.8,1.4-2.2,0-3
						C1187.3,69.6,1184.9,69.6,1183.5,70.5z"/>
					<path class="st3" d="M1878.5,605.5c-1.4,0.8-1.4,2.2,0,3c1.4,0.8,3.8,0.8,5.2,0c1.4-0.8,1.4-2.2,0-3
						C1882.3,604.7,1880,604.7,1878.5,605.5z"/>
					<path class="st3" d="M1762.7,538.6c-1.4,0.8-1.4,2.2,0,3s3.8,0.8,5.2,0c1.4-0.8,1.4-2.2,0-3
						C1766.5,537.8,1764.1,537.8,1762.7,538.6z"/>
					<path class="st3" d="M1646.9,471.7c-1.4,0.8-1.4,2.2,0,3c1.4,0.8,3.8,0.8,5.2,0c1.4-0.8,1.4-2.2,0-3
						C1650.6,470.9,1648.3,470.9,1646.9,471.7z"/>
					<path class="st3" d="M1531,404.8c-1.4,0.8-1.4,2.2,0,3c1.4,0.8,3.8,0.8,5.2,0c1.4-0.8,1.4-2.2,0-3
						C1534.8,404,1532.4,404,1531,404.8z"/>
					<path class="st3" d="M1415.2,338c-1.4,0.8-1.4,2.2,0,3c1.4,0.8,3.8,0.8,5.2,0c1.4-0.8,1.4-2.2,0-3
						C1418.9,337.1,1416.6,337.1,1415.2,338z"/>
					<path class="st3" d="M1299.3,271.1c-1.4,0.8-1.4,2.2,0,3c1.4,0.8,3.8,0.8,5.2,0c1.4-0.8,1.4-2.2,0-3
						C1303.1,270.3,1300.8,270.3,1299.3,271.1z"/>
					<path class="st3" d="M1183.5,204.2c-1.4,0.8-1.4,2.2,0,3c1.4,0.8,3.8,0.8,5.2,0c1.4-0.8,1.4-2.2,0-3
						C1187.3,203.4,1184.9,203.4,1183.5,204.2z"/>
					<path class="st3" d="M1067.7,137.3c-1.4,0.8-1.4,2.2,0,3c1.4,0.8,3.8,0.8,5.2,0c1.4-0.8,1.4-2.2,0-3
						C1071.4,136.5,1069.1,136.5,1067.7,137.3z"/>
					<path class="st3" d="M951.8,70.5c-1.4,0.8-1.4,2.2,0,3c1.4,0.8,3.8,0.8,5.2,0c1.4-0.8,1.4-2.2,0-3
						C955.6,69.6,953.3,69.6,951.8,70.5z"/>
					<path class="st3" d="M1878.5,739.2c-1.4,0.8-1.4,2.2,0,3c1.4,0.8,3.8,0.8,5.2,0c1.4-0.8,1.4-2.2,0-3
						C1882.3,738.4,1880,738.4,1878.5,739.2z"/>
					<ellipse class="st3" cx="1765.3" cy="673.9" rx="3.7" ry="2.1"/>
					<path class="st3" d="M1646.8,605.5c-1.4,0.8-1.4,2.2,0,3c1.4,0.8,3.8,0.8,5.2,0c1.4-0.8,1.4-2.2,0-3
						C1650.6,604.7,1648.3,604.7,1646.8,605.5z"/>
					<path class="st3" d="M1531,538.6c-1.4,0.8-1.4,2.2,0,3c1.4,0.8,3.8,0.8,5.2,0c1.4-0.8,1.4-2.2,0-3
						C1534.8,537.8,1532.4,537.8,1531,538.6z"/>
					<path class="st3" d="M1415.2,471.7c-1.4,0.8-1.4,2.2,0,3c1.4,0.8,3.8,0.8,5.2,0c1.4-0.8,1.4-2.2,0-3
						C1418.9,470.9,1416.6,470.9,1415.2,471.7z"/>
					<path class="st3" d="M1299.3,404.8c-1.4,0.8-1.4,2.2,0,3c1.4,0.8,3.8,0.8,5.2,0c1.4-0.8,1.4-2.2,0-3
						C1303.1,404,1300.8,404,1299.3,404.8z"/>
					<path class="st3" d="M1183.5,338c-1.4,0.8-1.4,2.2,0,3c1.4,0.8,3.8,0.8,5.2,0c1.4-0.8,1.4-2.2,0-3
						C1187.3,337.1,1184.9,337.1,1183.5,338z"/>
					<path class="st3" d="M1067.7,271.1c-1.4,0.8-1.4,2.2,0,3c1.4,0.8,3.8,0.8,5.2,0c1.4-0.8,1.4-2.2,0-3
						C1071.4,270.3,1069.1,270.3,1067.7,271.1z"/>
					<path class="st3" d="M951.8,204.2c-1.4,0.8-1.4,2.2,0,3c1.4,0.8,3.8,0.8,5.2,0c1.4-0.8,1.4-2.2,0-3
						C955.6,203.4,953.3,203.4,951.8,204.2z"/>
					<path class="st3" d="M836,137.3c-1.4,0.8-1.4,2.2,0,3c1.4,0.8,3.8,0.8,5.2,0c1.4-0.8,1.4-2.2,0-3
						C839.7,136.5,837.4,136.5,836,137.3z"/>
					<path class="st3" d="M720.1,70.5c-1.4,0.8-1.4,2.2,0,3c1.4,0.8,3.8,0.8,5.2,0c1.4-0.8,1.4-2.2,0-3
						C723.9,69.6,721.6,69.6,720.1,70.5z"/>
					<path class="st3" d="M1878.5,873c-1.4,0.8-1.4,2.2,0,3c1.4,0.8,3.8,0.8,5.2,0c1.4-0.8,1.4-2.2,0-3
						C1882.3,872.2,1880,872.2,1878.5,873z"/>
					<path class="st3" d="M1762.7,806.1c-1.4,0.8-1.4,2.2,0,3c1.4,0.8,3.8,0.8,5.2,0c1.4-0.8,1.4-2.2,0-3
						C1766.4,805.3,1764.1,805.3,1762.7,806.1z"/>
					<path class="st3" d="M1646.8,739.2c-1.4,0.8-1.4,2.2,0,3c1.4,0.8,3.8,0.8,5.2,0c1.4-0.8,1.4-2.2,0-3
						C1650.6,738.4,1648.3,738.4,1646.8,739.2z"/>
					<path class="st3" d="M1531,672.4c-1.4,0.8-1.4,2.2,0,3c1.4,0.8,3.8,0.8,5.2,0c1.4-0.8,1.4-2.2,0-3
						C1534.8,671.5,1532.4,671.5,1531,672.4z"/>
					<path class="st3" d="M1415.2,605.5c-1.4,0.8-1.4,2.2,0,3c1.4,0.8,3.8,0.8,5.2,0c1.4-0.8,1.4-2.2,0-3
						C1418.9,604.7,1416.6,604.7,1415.2,605.5z"/>
					<path class="st3" d="M1299.3,538.6c-1.4,0.8-1.4,2.2,0,3c1.4,0.8,3.8,0.8,5.2,0s1.4-2.2,0-3
						C1303.1,537.8,1300.8,537.8,1299.3,538.6z"/>
					<path class="st3" d="M1183.5,471.7c-1.4,0.8-1.4,2.2,0,3c1.4,0.8,3.8,0.8,5.2,0c1.4-0.8,1.4-2.2,0-3
						C1187.3,470.9,1184.9,470.9,1183.5,471.7z"/>
					<path class="st3" d="M1067.7,404.9c-1.4,0.8-1.4,2.2,0,3c1.4,0.8,3.8,0.8,5.2,0c1.4-0.8,1.4-2.2,0-3
						C1071.4,404,1069.1,404,1067.7,404.9z"/>
					<path class="st3" d="M951.8,338c-1.4,0.8-1.4,2.2,0,3c1.4,0.8,3.8,0.8,5.2,0c1.4-0.8,1.4-2.2,0-3
						C955.6,337.1,953.3,337.1,951.8,338z"/>
					<path class="st3" d="M836,271.1c-1.4,0.8-1.4,2.2,0,3c1.4,0.8,3.8,0.8,5.2,0s1.4-2.2,0-3C839.7,270.3,837.4,270.3,836,271.1z"
						/>
					<path class="st3" d="M720.1,204.2c-1.4,0.8-1.4,2.2,0,3c1.4,0.8,3.8,0.8,5.2,0c1.4-0.8,1.4-2.2,0-3
						C723.9,203.4,721.6,203.4,720.1,204.2z"/>
					<ellipse class="st3" cx="606.9" cy="138.8" rx="3.7" ry="2.1"/>
					<path class="st3" d="M488.5,70.5c-1.4,0.8-1.4,2.2,0,3c1.4,0.8,3.8,0.8,5.2,0c1.4-0.8,1.4-2.2,0-3
						C492.2,69.6,489.9,69.6,488.5,70.5z"/>
					<path class="st3" d="M1878.5,1006.8c-1.4,0.8-1.4,2.2,0,3c1.4,0.8,3.8,0.8,5.2,0c1.4-0.8,1.4-2.2,0-3
						C1882.3,1005.9,1880,1005.9,1878.5,1006.8z"/>
					<path class="st3" d="M1762.7,939.9c-1.4,0.8-1.4,2.2,0,3c1.4,0.8,3.8,0.8,5.2,0c1.4-0.8,1.4-2.2,0-3
						C1766.4,939.1,1764.1,939.1,1762.7,939.9z"/>
					<path class="st3" d="M1646.8,873c-1.4,0.8-1.4,2.2,0,3c1.4,0.8,3.8,0.8,5.2,0c1.4-0.8,1.4-2.2,0-3
						C1650.6,872.2,1648.3,872.2,1646.8,873z"/>
					<path class="st3" d="M1531,806.1c-1.4,0.8-1.4,2.2,0,3c1.4,0.8,3.8,0.8,5.2,0c1.4-0.8,1.4-2.2,0-3
						C1534.8,805.3,1532.4,805.3,1531,806.1z"/>
					<ellipse class="st3" cx="1417.8" cy="740.7" rx="3.7" ry="2.1"/>
					<path class="st3" d="M1299.3,672.4c-1.4,0.8-1.4,2.2,0,3c1.4,0.8,3.8,0.8,5.2,0c1.4-0.8,1.4-2.2,0-3
						C1303.1,671.5,1300.8,671.5,1299.3,672.4z"/>
					<ellipse class="st3" cx="1186.1" cy="607" rx="3.7" ry="2.1"/>
					<path class="st3" d="M1067.7,538.6c-1.4,0.8-1.4,2.2,0,3c1.4,0.8,3.8,0.8,5.2,0c1.4-0.8,1.4-2.2,0-3
						C1071.4,537.8,1069.1,537.8,1067.7,538.6z"/>
					<path class="st3" d="M951.8,471.7c-1.4,0.8-1.4,2.2,0,3c1.4,0.8,3.8,0.8,5.2,0c1.4-0.8,1.4-2.2,0-3
						C955.6,470.9,953.2,470.9,951.8,471.7z"/>
					<path class="st3" d="M836,404.9c-1.4,0.8-1.4,2.2,0,3c1.4,0.8,3.8,0.8,5.2,0c1.4-0.8,1.4-2.2,0-3
						C839.7,404,837.4,404,836,404.9z"/>
					<path class="st3" d="M720.1,338c-1.4,0.8-1.4,2.2,0,3c1.4,0.8,3.8,0.8,5.2,0c1.4-0.8,1.4-2.2,0-3
						C723.9,337.1,721.6,337.1,720.1,338z"/>
					<path class="st3" d="M604.3,271.1c-1.4,0.8-1.4,2.2,0,3c1.4,0.8,3.8,0.8,5.2,0c1.4-0.8,1.4-2.2,0-3S605.7,270.3,604.3,271.1z"
						/>
					<path class="st3" d="M488.5,204.2c-1.4,0.8-1.4,2.2,0,3c1.4,0.8,3.8,0.8,5.2,0c1.4-0.8,1.4-2.2,0-3
						C492.2,203.4,489.9,203.4,488.5,204.2z"/>
					<path class="st3" d="M372.6,137.3c-1.4,0.8-1.4,2.2,0,3c1.4,0.8,3.8,0.8,5.2,0s1.4-2.2,0-3
						C376.4,136.5,374.1,136.5,372.6,137.3z"/>
					<path class="st3" d="M1878.5,1140.5c-1.4,0.8-1.4,2.2,0,3c1.4,0.8,3.8,0.8,5.2,0c1.4-0.8,1.4-2.2,0-3
						C1882.3,1139.7,1879.9,1139.7,1878.5,1140.5z"/>
					<path class="st3" d="M1762.7,1073.6c-1.4,0.8-1.4,2.2,0,3c1.4,0.8,3.8,0.8,5.2,0c1.4-0.8,1.4-2.2,0-3
						C1766.4,1072.8,1764.1,1072.8,1762.7,1073.6z"/>
					<path class="st3" d="M1646.8,1006.8c-1.4,0.8-1.4,2.2,0,3c1.4,0.8,3.8,0.8,5.2,0c1.4-0.8,1.4-2.2,0-3
						C1650.6,1005.9,1648.3,1005.9,1646.8,1006.8z"/>
					<path class="st3" d="M836,538.6c-1.4,0.8-1.4,2.2,0,3c1.4,0.8,3.8,0.8,5.2,0c1.4-0.8,1.4-2.2,0-3
						C839.7,537.8,837.4,537.8,836,538.6z"/>
					<path class="st3" d="M720.1,471.7c-1.4,0.8-1.4,2.2,0,3c1.4,0.8,3.8,0.8,5.2,0c1.4-0.8,1.4-2.2,0-3
						C723.9,470.9,721.6,470.9,720.1,471.7z"/>
					<path class="st3" d="M604.3,404.9c-1.4,0.8-1.4,2.2,0,3c1.4,0.8,3.8,0.8,5.2,0c1.4-0.8,1.4-2.2,0-3
						C608.1,404,605.7,404,604.3,404.9z"/>
					<path class="st3" d="M488.5,338c-1.4,0.8-1.4,2.2,0,3c1.4,0.8,3.8,0.8,5.2,0c1.4-0.8,1.4-2.2,0-3
						C492.2,337.1,489.9,337.1,488.5,338z"/>
					<path class="st3" d="M372.6,271.1c-1.4,0.8-1.4,2.2,0,3c1.4,0.8,3.8,0.8,5.2,0c1.4-0.8,1.4-2.2,0-3
						C376.4,270.3,374.1,270.3,372.6,271.1z"/>
					<path class="st3" d="M256.8,204.2c-1.4,0.8-1.4,2.2,0,3c1.4,0.8,3.8,0.8,5.2,0s1.4-2.2,0-3
						C260.5,203.4,258.2,203.4,256.8,204.2z"/>
					<path class="st3" d="M1878.5,1274.3c-1.4,0.8-1.4,2.2,0,3c1.4,0.8,3.8,0.8,5.2,0c1.4-0.8,1.4-2.2,0-3
						S1879.9,1273.5,1878.5,1274.3z"/>
					<ellipse class="st3" cx="1765.3" cy="1208.9" rx="3.7" ry="2.1"/>
					<path class="st3" d="M720.1,605.5c-1.4,0.8-1.4,2.2,0,3c1.4,0.8,3.8,0.8,5.2,0c1.4-0.8,1.4-2.2,0-3
						C723.9,604.7,721.6,604.7,720.1,605.5z"/>
					<path class="st3" d="M604.3,538.6c-1.4,0.8-1.4,2.2,0,3c1.4,0.8,3.8,0.8,5.2,0c1.4-0.8,1.4-2.2,0-3
						C608.1,537.8,605.7,537.8,604.3,538.6z"/>
					<path class="st3" d="M488.5,471.7c-1.4,0.8-1.4,2.2,0,3c1.4,0.8,3.8,0.8,5.2,0c1.4-0.8,1.4-2.2,0-3
						C492.2,470.9,489.9,470.9,488.5,471.7z"/>
					<path class="st3" d="M372.6,404.9c-1.4,0.8-1.4,2.2,0,3c1.4,0.8,3.8,0.8,5.2,0c1.4-0.8,1.4-2.2,0-3
						C376.4,404,374.1,404,372.6,404.9z"/>
					<ellipse class="st3" cx="259.4" cy="339.5" rx="3.7" ry="2.1"/>
					<path class="st3" d="M140.9,271.1c-1.4,0.8-1.4,2.2,0,3c1.4,0.8,3.8,0.8,5.2,0c1.4-0.8,1.4-2.2,0-3
						C144.7,270.3,142.4,270.3,140.9,271.1z"/>
					<path class="st3" d="M1878.5,1408c-1.4,0.8-1.4,2.2,0,3s3.8,0.8,5.2,0c1.4-0.8,1.4-2.2,0-3
						C1882.3,1407.2,1879.9,1407.2,1878.5,1408z"/>
					<path class="st3" d="M1762.7,1341.2c-1.4,0.8-1.4,2.2,0,3c1.4,0.8,3.8,0.8,5.2,0s1.4-2.2,0-3
						C1766.4,1340.3,1764.1,1340.3,1762.7,1341.2z"/>
					<path class="st3" d="M1646.8,1274.3c-1.4,0.8-1.4,2.2,0,3c1.4,0.8,3.8,0.8,5.2,0c1.4-0.8,1.4-2.2,0-3
						C1650.6,1273.5,1648.3,1273.5,1646.8,1274.3z"/>
					<path class="st3" d="M1531,1207.4c-1.4,0.8-1.4,2.2,0,3c1.4,0.8,3.8,0.8,5.2,0s1.4-2.2,0-3
						C1534.8,1206.6,1532.4,1206.6,1531,1207.4z"/>
					<path class="st3" d="M604.3,672.4c-1.4,0.8-1.4,2.2,0,3c1.4,0.8,3.8,0.8,5.2,0c1.4-0.8,1.4-2.2,0-3
						C608.1,671.5,605.7,671.5,604.3,672.4z"/>
					<path class="st3" d="M488.5,605.5c-1.4,0.8-1.4,2.2,0,3c1.4,0.8,3.8,0.8,5.2,0c1.4-0.8,1.4-2.2,0-3
						C492.2,604.7,489.9,604.7,488.5,605.5z"/>
					<path class="st3" d="M372.6,538.6c-1.4,0.8-1.4,2.2,0,3c1.4,0.8,3.8,0.8,5.2,0c1.4-0.8,1.4-2.2,0-3
						C376.4,537.8,374,537.8,372.6,538.6z"/>
					<path class="st3" d="M256.8,471.7c-1.4,0.8-1.4,2.2,0,3c1.4,0.8,3.8,0.8,5.2,0c1.4-0.8,1.4-2.2,0-3
						C260.5,470.9,258.2,470.9,256.8,471.7z"/>
					<path class="st3" d="M140.9,404.9c-1.4,0.8-1.4,2.2,0,3c1.4,0.8,3.8,0.8,5.2,0c1.4-0.8,1.4-2.2,0-3
						C144.7,404,142.4,404,140.9,404.9z"/>
					<path class="st3" d="M1762.7,1474.9c-1.4,0.8-1.4,2.2,0,3c1.4,0.8,3.8,0.8,5.2,0s1.4-2.2,0-3
						C1766.4,1474.1,1764.1,1474.1,1762.7,1474.9z"/>
					<path class="st3" d="M1646.8,1408c-1.4,0.8-1.4,2.2,0,3c1.4,0.8,3.8,0.8,5.2,0c1.4-0.8,1.4-2.2,0-3
						C1650.6,1407.2,1648.3,1407.2,1646.8,1408z"/>
					<path class="st3" d="M1531,1341.2c-1.4,0.8-1.4,2.2,0,3c1.4,0.8,3.8,0.8,5.2,0c1.4-0.8,1.4-2.2,0-3
						C1534.8,1340.3,1532.4,1340.3,1531,1341.2z"/>
					<path class="st3" d="M1415.2,1274.3c-1.4,0.8-1.4,2.2,0,3c1.4,0.8,3.8,0.8,5.2,0c1.4-0.8,1.4-2.2,0-3
						S1416.6,1273.5,1415.2,1274.3z"/>
					<path class="st3" d="M488.4,739.3c-1.4,0.8-1.4,2.2,0,3c1.4,0.8,3.8,0.8,5.2,0c1.4-0.8,1.4-2.2,0-3
						C492.2,738.4,489.9,738.4,488.4,739.3z"/>
					<path class="st3" d="M372.6,672.4c-1.4,0.8-1.4,2.2,0,3c1.4,0.8,3.8,0.8,5.2,0c1.4-0.8,1.4-2.2,0-3
						C376.4,671.5,374,671.5,372.6,672.4z"/>
					<path class="st3" d="M256.8,605.5c-1.4,0.8-1.4,2.2,0,3c1.4,0.8,3.8,0.8,5.2,0c1.4-0.8,1.4-2.2,0-3
						C260.5,604.7,258.2,604.7,256.8,605.5z"/>
					<path class="st3" d="M140.9,538.6c-1.4,0.8-1.4,2.2,0,3c1.4,0.8,3.8,0.8,5.2,0c1.4-0.8,1.4-2.2,0-3
						C144.7,537.8,142.4,537.8,140.9,538.6z"/>
					<path class="st3" d="M1646.8,1541.8c-1.4,0.8-1.4,2.2,0,3c1.4,0.8,3.8,0.8,5.2,0c1.4-0.8,1.4-2.2,0-3
						C1650.6,1541,1648.3,1541,1646.8,1541.8z"/>
					<path class="st3" d="M1531,1474.9c-1.4,0.8-1.4,2.2,0,3c1.4,0.8,3.8,0.8,5.2,0c1.4-0.8,1.4-2.2,0-3
						C1534.7,1474.1,1532.4,1474.1,1531,1474.9z"/>
					<ellipse class="st3" cx="1417.7" cy="1409.5" rx="3.7" ry="2.1"/>
					<path class="st3" d="M372.6,806.1c-1.4,0.8-1.4,2.2,0,3c1.4,0.8,3.8,0.8,5.2,0c1.4-0.8,1.4-2.2,0-3
						C376.4,805.3,374,805.3,372.6,806.1z"/>
					<ellipse class="st3" cx="259.4" cy="740.8" rx="3.7" ry="2.1"/>
					<path class="st3" d="M140.9,672.4c-1.4,0.8-1.4,2.2,0,3c1.4,0.8,3.8,0.8,5.2,0c1.4-0.8,1.4-2.2,0-3
						C144.7,671.6,142.4,671.6,140.9,672.4z"/>
					<path class="st3" d="M1415.1,1541.8c-1.4,0.8-1.4,2.2,0,3s3.8,0.8,5.2,0c1.4-0.8,1.4-2.2,0-3
						C1418.9,1541,1416.6,1541,1415.1,1541.8z"/>
					<path class="st3" d="M1299.3,1474.9c-1.4,0.8-1.4,2.2,0,3c1.4,0.8,3.8,0.8,5.2,0c1.4-0.8,1.4-2.2,0-3
						C1303.1,1474.1,1300.7,1474.1,1299.3,1474.9z"/>
					<path class="st3" d="M1183.5,1408.1c-1.4,0.8-1.4,2.2,0,3c1.4,0.8,3.8,0.8,5.2,0c1.4-0.8,1.4-2.2,0-3
						C1187.2,1407.2,1184.9,1407.2,1183.5,1408.1z"/>
					<ellipse class="st3" cx="1070.2" cy="1342.7" rx="3.7" ry="2.1"/>
					<path class="st3" d="M951.8,1274.3c-1.4,0.8-1.4,2.2,0,3c1.4,0.8,3.8,0.8,5.2,0s1.4-2.2,0-3
						C955.6,1273.5,953.2,1273.5,951.8,1274.3z"/>
					<ellipse class="st3" cx="838.6" cy="1208.9" rx="3.7" ry="2.1"/>
					<path class="st3" d="M720.1,1140.5c-1.4,0.8-1.4,2.2,0,3c1.4,0.8,3.8,0.8,5.2,0c1.4-0.8,1.4-2.2,0-3
						C723.9,1139.7,721.6,1139.7,720.1,1140.5z"/>
					<ellipse class="st3" cx="606.9" cy="1075.2" rx="3.7" ry="2.1"/>
					<path class="st3" d="M488.4,1006.8c-1.4,0.8-1.4,2.2,0,3c1.4,0.8,3.8,0.8,5.2,0c1.4-0.8,1.4-2.2,0-3
						C492.2,1005.9,489.9,1005.9,488.4,1006.8z"/>
					<path class="st3" d="M372.6,939.9c-1.4,0.8-1.4,2.2,0,3c1.4,0.8,3.8,0.8,5.2,0c1.4-0.8,1.4-2.2,0-3
						C376.4,939.1,374,939.1,372.6,939.9z"/>
					<path class="st3" d="M256.8,873c-1.4,0.8-1.4,2.2,0,3c1.4,0.8,3.8,0.8,5.2,0c1.4-0.8,1.4-2.2,0-3
						C260.5,872.2,258.2,872.2,256.8,873z"/>
					<path class="st3" d="M140.9,806.1c-1.4,0.8-1.4,2.2,0,3c1.4,0.8,3.8,0.8,5.2,0c1.4-0.8,1.4-2.2,0-3
						C144.7,805.3,142.4,805.3,140.9,806.1z"/>
					<path class="st3" d="M1183.5,1541.8c-1.4,0.8-1.4,2.2,0,3c1.4,0.8,3.8,0.8,5.2,0c1.4-0.8,1.4-2.2,0-3
						C1187.2,1541,1184.9,1541,1183.5,1541.8z"/>
					<path class="st3" d="M1067.6,1474.9c-1.4,0.8-1.4,2.2,0,3c1.4,0.8,3.8,0.8,5.2,0c1.4-0.8,1.4-2.2,0-3
						C1071.4,1474.1,1069.1,1474.1,1067.6,1474.9z"/>
					<path class="st3" d="M951.8,1408.1c-1.4,0.8-1.4,2.2,0,3c1.4,0.8,3.8,0.8,5.2,0c1.4-0.8,1.4-2.2,0-3
						C955.6,1407.2,953.2,1407.2,951.8,1408.1z"/>
					<ellipse class="st3" cx="838.5" cy="1342.7" rx="3.7" ry="2.1"/>
					<path class="st3" d="M720.1,1274.3c-1.4,0.8-1.4,2.2,0,3c1.4,0.8,3.8,0.8,5.2,0c1.4-0.8,1.4-2.2,0-3
						C723.9,1273.5,721.5,1273.5,720.1,1274.3z"/>
					<ellipse class="st3" cx="606.9" cy="1208.9" rx="3.7" ry="2.1"/>
					<path class="st3" d="M488.4,1140.5c-1.4,0.8-1.4,2.2,0,3c1.4,0.8,3.8,0.8,5.2,0c1.4-0.8,1.4-2.2,0-3
						C492.2,1139.7,489.9,1139.7,488.4,1140.5z"/>
					<path class="st3" d="M372.6,1073.7c-1.4,0.8-1.4,2.2,0,3c1.4,0.8,3.8,0.8,5.2,0c1.4-0.8,1.4-2.2,0-3
						C376.4,1072.8,374,1072.8,372.6,1073.7z"/>
					<path class="st3" d="M256.8,1006.8c-1.4,0.8-1.4,2.2,0,3c1.4,0.8,3.8,0.8,5.2,0c1.4-0.8,1.4-2.2,0-3
						C260.5,1006,258.2,1006,256.8,1006.8z"/>
					<path class="st3" d="M140.9,939.9c-1.4,0.8-1.4,2.2,0,3c1.4,0.8,3.8,0.8,5.2,0c1.4-0.8,1.4-2.2,0-3
						C144.7,939.1,142.4,939.1,140.9,939.9z"/>
					<path class="st3" d="M951.8,1541.8c-1.4,0.8-1.4,2.2,0,3c1.4,0.8,3.8,0.8,5.2,0c1.4-0.8,1.4-2.2,0-3
						C955.5,1541,953.2,1541,951.8,1541.8z"/>
					<path class="st3" d="M835.9,1474.9c-1.4,0.8-1.4,2.2,0,3c1.4,0.8,3.8,0.8,5.2,0c1.4-0.8,1.4-2.2,0-3
						C839.7,1474.1,837.4,1474.1,835.9,1474.9z"/>
					<path class="st3" d="M720.1,1408.1c-1.4,0.8-1.4,2.2,0,3c1.4,0.8,3.8,0.8,5.2,0c1.4-0.8,1.4-2.2,0-3
						C723.9,1407.2,721.5,1407.2,720.1,1408.1z"/>
					<path class="st3" d="M604.3,1341.2c-1.4,0.8-1.4,2.2,0,3c1.4,0.8,3.8,0.8,5.2,0c1.4-0.8,1.4-2.2,0-3
						C608,1340.3,605.7,1340.3,604.3,1341.2z"/>
					<path class="st3" d="M488.4,1274.3c-1.4,0.8-1.4,2.2,0,3c1.4,0.8,3.8,0.8,5.2,0c1.4-0.8,1.4-2.2,0-3
						C492.2,1273.5,489.9,1273.5,488.4,1274.3z"/>
					<path class="st3" d="M372.6,1207.4c-1.4,0.8-1.4,2.2,0,3c1.4,0.8,3.8,0.8,5.2,0c1.4-0.8,1.4-2.2,0-3
						C376.4,1206.6,374,1206.6,372.6,1207.4z"/>
					<path class="st3" d="M256.8,1140.5c-1.4,0.8-1.4,2.2,0,3c1.4,0.8,3.8,0.8,5.2,0c1.4-0.8,1.4-2.2,0-3
						C260.5,1139.7,258.2,1139.7,256.8,1140.5z"/>
					<path class="st3" d="M140.9,1073.7c-1.4,0.8-1.4,2.2,0,3c1.4,0.8,3.8,0.8,5.2,0c1.4-0.8,1.4-2.2,0-3
						C144.7,1072.8,142.4,1072.8,140.9,1073.7z"/>
					<path class="st3" d="M720.1,1541.8c-1.4,0.8-1.4,2.2,0,3c1.4,0.8,3.8,0.8,5.2,0c1.4-0.8,1.4-2.2,0-3
						C723.9,1541,721.5,1541,720.1,1541.8z"/>
					<path class="st3" d="M604.3,1474.9c-1.4,0.8-1.4,2.2,0,3c1.4,0.8,3.8,0.8,5.2,0c1.4-0.8,1.4-2.2,0-3
						C608,1474.1,605.7,1474.1,604.3,1474.9z"/>
					<path class="st3" d="M488.4,1408.1c-1.4,0.8-1.4,2.2,0,3c1.4,0.8,3.8,0.8,5.2,0c1.4-0.8,1.4-2.2,0-3
						C492.2,1407.2,489.9,1407.2,488.4,1408.1z"/>
					<path class="st3" d="M372.6,1341.2c-1.4,0.8-1.4,2.2,0,3c1.4,0.8,3.8,0.8,5.2,0s1.4-2.2,0-3
						C376.4,1340.3,374,1340.3,372.6,1341.2z"/>
					<path class="st3" d="M256.8,1274.3c-1.4,0.8-1.4,2.2,0,3c1.4,0.8,3.8,0.8,5.2,0c1.4-0.8,1.4-2.2,0-3
						C260.5,1273.5,258.2,1273.5,256.8,1274.3z"/>
					<path class="st3" d="M140.9,1207.4c-1.4,0.8-1.4,2.2,0,3c1.4,0.8,3.8,0.8,5.2,0c1.4-0.8,1.4-2.2,0-3
						C144.7,1206.6,142.4,1206.6,140.9,1207.4z"/>
					<path class="st3" d="M488.4,1541.8c-1.4,0.8-1.4,2.2,0,3c1.4,0.8,3.8,0.8,5.2,0c1.4-0.8,1.4-2.2,0-3
						C492.2,1541,489.9,1541,488.4,1541.8z"/>
					<path class="st3" d="M372.6,1474.9c-1.4,0.8-1.4,2.2,0,3c1.4,0.8,3.8,0.8,5.2,0c1.4-0.8,1.4-2.2,0-3
						C376.4,1474.1,374,1474.1,372.6,1474.9z"/>
					<path class="st3" d="M256.8,1408.1c-1.4,0.8-1.4,2.2,0,3s3.8,0.8,5.2,0c1.4-0.8,1.4-2.2,0-3
						C260.5,1407.2,258.2,1407.2,256.8,1408.1z"/>
					<path class="st3" d="M140.9,1341.2c-1.4,0.8-1.4,2.2,0,3c1.4,0.8,3.8,0.8,5.2,0c1.4-0.8,1.4-2.2,0-3
						C144.7,1340.4,142.3,1340.4,140.9,1341.2z"/>
					<path class="st3" d="M256.7,1541.8c-1.4,0.8-1.4,2.2,0,3c1.4,0.8,3.8,0.8,5.2,0c1.4-0.8,1.4-2.2,0-3
						C260.5,1541,258.2,1541,256.7,1541.8z"/>
					<path class="st3" d="M140.9,1474.9c-1.4,0.8-1.4,2.2,0,3c1.4,0.8,3.8,0.8,5.2,0c1.4-0.8,1.4-2.2,0-3
						C144.7,1474.1,142.3,1474.1,140.9,1474.9z"/>
				</g>
			</g>
			<g class="st11">
				<path class="st3" d="M1531,939.9c-1.4,0.8-1.4,2.2,0,3c1.4,0.8,3.8,0.8,5.2,0c1.4-0.8,1.4-2.2,0-3
					C1534.8,939.1,1532.4,939.1,1531,939.9z"/>
				<path class="st3" d="M1415.2,873c-1.4,0.8-1.4,2.2,0,3s3.8,0.8,5.2,0c1.4-0.8,1.4-2.2,0-3C1419,872.2,1416.7,872.2,1415.2,873z"
					/>
				<path class="st3" d="M1299.4,806.1c-1.4,0.8-1.4,2.2,0,3s3.8,0.8,5.2,0c1.4-0.8,1.4-2.2,0-3
					C1303.2,805.3,1300.9,805.3,1299.4,806.1z"/>
				<path class="st3" d="M1183.6,739.2c-1.4,0.8-1.4,2.2,0,3c1.4,0.8,3.8,0.8,5.2,0c1.4-0.8,1.4-2.2,0-3
					C1187.3,738.4,1185,738.4,1183.6,739.2z"/>
				<path class="st3" d="M1067.6,672.3c-1.4,0.8-1.4,2.2,0,3c1.4,0.8,3.8,0.8,5.2,0c1.4-0.8,1.4-2.2,0-3
					C1071.4,671.5,1069.1,671.5,1067.6,672.3z"/>
				<path class="st3" d="M951.8,605.5c-1.4,0.8-1.4,2.2,0,3c1.4,0.8,3.8,0.8,5.2,0c1.4-0.8,1.4-2.2,0-3
					C955.6,604.7,953.2,604.7,951.8,605.5z"/>
			</g>
			<g class="st11">
				<path class="st3" d="M488.4,872.9c-1.4,0.8-1.4,2.2,0,3c1.4,0.8,3.8,0.8,5.2,0c1.4-0.8,1.4-2.2,0-3
					C492.2,872.1,489.9,872.1,488.4,872.9z"/>
				<path class="st3" d="M604.3,806.1c-1.4,0.8-1.4,2.2,0,3c1.4,0.8,3.8,0.8,5.2,0c1.4-0.8,1.4-2.2,0-3
					C608,805.3,605.7,805.3,604.3,806.1z"/>
				<path class="st3" d="M720.2,873c-1.4,0.8-1.4,2.2,0,3c1.4,0.8,3.8,0.8,5.2,0c1.4-0.8,1.4-2.2,0-3
					C724,872.2,721.6,872.2,720.2,873z"/>
				<path class="st3" d="M604.3,939.9c-1.4,0.8-1.4,2.2,0,3c1.4,0.8,3.8,0.8,5.2,0c1.4-0.8,1.4-2.2,0-3
					C608,939.1,605.7,939.1,604.3,939.9z"/>
				<path class="st3" d="M720.2,1006.8c-1.4,0.8-1.4,2.2,0,3c1.4,0.8,3.8,0.8,5.2,0c1.4-0.8,1.4-2.2,0-3
					C724,1005.9,721.6,1005.9,720.2,1006.8z"/>
				<path class="st3" d="M836.2,1073.7c-1.4,0.8-1.4,2.2,0,3c1.4,0.8,3.8,0.8,5.2,0c1.4-0.8,1.4-2.2,0-3
					C840,1072.8,837.7,1072.8,836.2,1073.7z"/>
				<path class="st3" d="M836.1,939.9c-1.4,0.8-1.4,2.2,0,3c1.4,0.8,3.8,0.8,5.2,0c1.4-0.8,1.4-2.2,0-3
					C839.8,939.1,837.5,939.1,836.1,939.9z"/>
				<path class="st3" d="M951.8,1006.8c-1.4,0.8-1.4,2.2,0,3c1.4,0.8,3.8,0.8,5.2,0c1.4-0.8,1.4-2.2,0-3
					C955.6,1005.9,953.2,1005.9,951.8,1006.8z"/>
				<path class="st3" d="M720.1,739.3c-1.4,0.8-1.4,2.2,0,3c1.4,0.8,3.8,0.8,5.2,0c1.4-0.8,1.4-2.2,0-3
					C723.9,738.4,721.5,738.4,720.1,739.3z"/>
				<path class="st3" d="M836,806.2c-1.4,0.8-1.4,2.2,0,3c1.4,0.8,3.8,0.8,5.2,0c1.4-0.8,1.4-2.2,0-3
					C839.8,805.3,837.5,805.3,836,806.2z"/>
				<path class="st3" d="M951.9,873c-1.4,0.8-1.4,2.2,0,3c1.4,0.8,3.8,0.8,5.2,0c1.4-0.8,1.4-2.2,0-3
					C955.7,872.2,953.3,872.2,951.9,873z"/>
				<path class="st3" d="M1067.6,939.9c-1.4,0.8-1.4,2.2,0,3c1.4,0.8,3.8,0.8,5.2,0c1.4-0.8,1.4-2.2,0-3
					C1071.4,939.1,1069.1,939.1,1067.6,939.9z"/>
				<path class="st3" d="M836,672.4c-1.4,0.8-1.4,2.2,0,3c1.4,0.8,3.8,0.8,5.2,0c1.4-0.8,1.4-2.2,0-3
					C839.7,671.5,837.4,671.5,836,672.4z"/>
				<path class="st3" d="M951.9,739.3c-1.4,0.8-1.4,2.2,0,3c1.4,0.8,3.8,0.8,5.2,0c1.4-0.8,1.4-2.2,0-3
					C955.6,738.5,953.3,738.5,951.9,739.3z"/>
				<path class="st3" d="M1067.8,806.2c-1.4,0.8-1.4,2.2,0,3c1.4,0.8,3.8,0.8,5.2,0c1.4-0.8,1.4-2.2,0-3
					C1071.5,805.3,1069.2,805.3,1067.8,806.2z"/>
				<path class="st3" d="M1183.5,873c-1.4,0.8-1.4,2.2,0,3c1.4,0.8,3.8,0.8,5.2,0c1.4-0.8,1.4-2.2,0-3
					C1187.2,872.2,1184.9,872.2,1183.5,873z"/>
			</g>
		</g>
		<path class="st7" d="M1750.9,1463.2l-75.7-43.7c-3.5-2-5.6-5.6-5.6-9.7s2.1-7.7,5.6-9.7l75.7-43.7c10.2-5.9,22.8-5.9,32.9,0
			l75.7,43.7c3.5,2,5.6,5.6,5.6,9.7c0,4-2.1,7.7-5.6,9.7l-75.7,43.7c-5.1,2.9-10.8,4.4-16.5,4.4
			C1761.6,1467.6,1755.9,1466.1,1750.9,1463.2z M1751.5,1357.4l-75.7,43.7c-3.1,1.8-5,5-5,8.6s1.9,6.8,5,8.6l75.7,43.7
			c9.8,5.6,21.9,5.6,31.7,0l75.7-43.7c3.1-1.8,5-5,5-8.6c0-3.6-1.9-6.8-5-8.6l-75.7-43.7c-4.9-2.8-10.4-4.2-15.8-4.2
			C1761.8,1353.2,1756.4,1354.6,1751.5,1357.4z"/>
		<path class="st12" d="M1633,458.5l-75.7-43.7c-3.5-2-5.6-5.6-5.6-9.7s2.1-7.7,5.6-9.7l75.7-43.7c10.2-5.9,22.8-5.9,32.9,0
			l75.7,43.7c3.5,2,5.6,5.6,5.6,9.7c0,4-2.1,7.7-5.6,9.7l-75.7,43.7c-5.1,2.9-10.8,4.4-16.5,4.4
			C1643.8,462.9,1638.1,461.4,1633,458.5z M1633.6,352.7l-75.7,43.7c-3.1,1.8-5,5-5,8.6s1.9,6.8,5,8.6l75.7,43.7
			c9.8,5.6,21.9,5.6,31.7,0l75.7-43.7c3.1-1.8,5-5,5-8.6c0-3.6-1.9-6.8-5-8.6l-75.7-43.7c-4.9-2.8-10.4-4.2-15.8-4.2
			C1644,348.5,1638.5,349.9,1633.6,352.7z"/>
		<path class="st13" d="M1748.8,390.8l-75.7-43.7c-3.5-2-5.6-5.6-5.6-9.7s2.1-7.7,5.6-9.7l75.7-43.7c10.2-5.9,22.8-5.9,32.9,0
			l75.7,43.7c3.5,2,5.6,5.6,5.6,9.7c0,4-2.1,7.7-5.6,9.7l-75.7,43.7c-5.1,2.9-10.8,4.4-16.5,4.4
			C1759.6,395.1,1753.9,393.7,1748.8,390.8z M1749.4,285l-75.7,43.7c-3.1,1.8-5,5-5,8.6s1.9,6.8,5,8.6l75.7,43.7
			c9.8,5.6,21.9,5.6,31.7,0l75.7-43.7c3.1-1.8,5-5,5-8.6c0-3.6-1.9-6.8-5-8.6l-75.7-43.7c-4.9-2.8-10.4-4.2-15.8-4.2
			C1759.8,280.8,1754.3,282.2,1749.4,285z"/>
		<path class="st13" d="M243.3,1128.8l-75.7-43.7c-3.5-2-5.6-5.6-5.6-9.7s2.1-7.7,5.6-9.7l75.7-43.7c10.2-5.9,22.8-5.9,32.9,0
			l75.7,43.7c3.5,2,5.6,5.6,5.6,9.7c0,4-2.1,7.7-5.6,9.7l-75.7,43.7c-5.1,2.9-10.8,4.4-16.5,4.4
			C254,1133.2,248.4,1131.8,243.3,1128.8z M243.9,1023.1l-75.7,43.7c-3.1,1.8-5,5-5,8.6s1.9,6.8,5,8.6l75.7,43.7
			c9.8,5.6,21.9,5.6,31.7,0l75.7-43.7c3.1-1.8,5-5,5-8.6c0-3.6-1.9-6.8-5-8.6l-75.7-43.7c-4.9-2.8-10.4-4.2-15.8-4.2
			C254.3,1018.9,248.8,1020.3,243.9,1023.1z"/>
	</g>
</g>
</svg>
